<?xml version="1.0" encoding="utf-8"?>
<!-- Generator: Adobe Illustrator 17.0.0, SVG Export Plug-In . SVG Version: 6.00 Build 0)  -->
<!DOCTYPE svg PUBLIC "-//W3C//DTD SVG 1.1//EN" "http://www.w3.org/Graphics/SVG/1.1/DTD/svg11.dtd">
<svg version="1.1" id="Layer_1" xmlns="http://www.w3.org/2000/svg" xmlns:xlink="http://www.w3.org/1999/xlink" x="0px" y="0px"
	 width="737.137px" height="206.941px" viewBox="0 0 737.137 206.941" enable-background="new 0 0 737.137 206.941"
	 xml:space="preserve">
<g>
	<linearGradient id="SVGID_1_" gradientUnits="userSpaceOnUse" x1="169.6982" y1="44.5718" x2="346.1412" y2="44.5718">
		<stop  offset="0" style="stop-color:#F9AE3B"/>
		<stop  offset="0.8579" style="stop-color:#FF911E"/>
	</linearGradient>

	<path id="theMotionPath" fill="none" stroke="url(#SVGID_1_)" stroke-miterlimit="10" d="M169.698,21.702c104.941,0,61.441,45.37,176.441,45.739"/>

	<linearGradient id="SVGID_2_" gradientUnits="userSpaceOnUse" x1="119.6396" y1="80.0552" x2="346.1396" y2="80.0552">
		<stop  offset="0" style="stop-color:#F9AE3B"/>
		<stop  offset="0.8579" style="stop-color:#FF911E"/>
	</linearGradient>

	<path id="theMotionPath1" fill="none" stroke="url(#SVGID_2_)" stroke-miterlimit="10" d="M119.64,92.669c104.941,0,79-25.228,226.5-25.228"/>

	<linearGradient id="SVGID_3_" gradientUnits="userSpaceOnUse" x1="79.4956" y1="123.1255" x2="346.1412" y2="123.1255">
		<stop  offset="0" style="stop-color:#F9AE3B"/>
		<stop  offset="0.8579" style="stop-color:#FF911E"/>
	</linearGradient>
	<path id="theMotionPath2" fill="none" stroke="url(#SVGID_3_)" stroke-miterlimit="10" d="M79.496,178.811c104.941,0,151.644-111.738,266.644-111.369"
		/>
	<linearGradient id="SVGID_4_" gradientUnits="userSpaceOnUse" x1="195.1396" y1="23.3565" x2="205.1396" y2="23.3565">
		<stop  offset="0" style="stop-color:#F9AE3B"/>
		<stop  offset="0.8579" style="stop-color:#FF911E"/>
	</linearGradient>

		

	<circle fill="url(#SVGID_4_)" cx="" cy="" r="5"><animateMotion dur="5s" repeatCount="indefinite">
      <mpath xlink:href="#theMotionPath"/>
    </animateMotion></circle>


	<linearGradient id="SVGID_5_" gradientUnits="userSpaceOnUse" x1="157.1396" y1="90.3565" x2="167.1396" y2="90.3565">
		<stop  offset="0" style="stop-color:#F9AE3B"/>
		<stop  offset="0.8579" style="stop-color:#FF911E"/>
	</linearGradient>

	<circle fill="url(#SVGID_5_)" cx="" cy="" r="5"><animateMotion begin="2s"  dur="5s" repeatCount="indefinite">
      <mpath xlink:href="#theMotionPath1"/>
    </animateMotion></circle>

	<linearGradient id="SVGID_6_" gradientUnits="userSpaceOnUse" x1="249.1396" y1="72.3565" x2="259.1396" y2="72.3565">
		<stop  offset="0" style="stop-color:#F9AE3B"/>
		<stop  offset="0.8579" style="stop-color:#FF911E"/>
	</linearGradient>

	<circle fill="url(#SVGID_6_)" cx="" cy="" r="5"><animateMotion begin="4s" dur="5s" repeatCount="indefinite">
      <mpath xlink:href="#theMotionPath1"/>
    </animateMotion></circle>
	<linearGradient id="SVGID_7_" gradientUnits="userSpaceOnUse" x1="186.1396" y1="135.3565" x2="196.1396" y2="135.3565">
		<stop  offset="0" style="stop-color:#F9AE3B"/>
		<stop  offset="0.8579" style="stop-color:#FF911E"/>
	</linearGradient>
	<circle fill="url(#SVGID_7_)" cx="" cy="" r="5"><animateMotion begin="1s" dur="5s" repeatCount="indefinite">
      <mpath xlink:href="#theMotionPath2"/>
    </animateMotion></circle>
	<g>
		<g>
			<g>
				<path fill="#0077B5" d="M158.208,8.811h-25.821c-1.231,0-2.233,0.978-2.233,2.183v25.93c0,1.208,1.002,2.184,2.233,2.184h25.821
					c1.235,0,2.243-0.976,2.243-2.184v-25.93C160.451,9.789,159.443,8.811,158.208,8.811z"/>
				<path fill="#FFFFFF" d="M134.642,20.17h4.498v14.459h-4.498V20.17z M136.893,12.981c1.438,0,2.605,1.168,2.605,2.605
					c0,1.439-1.168,2.606-2.605,2.606c-1.443,0-2.607-1.168-2.607-2.606C134.286,14.149,135.45,12.981,136.893,12.981"/>
				<path fill="#FFFFFF" d="M141.96,20.17h4.306v1.976h0.063c0.6-1.136,2.066-2.335,4.251-2.335c4.547,0,5.388,2.994,5.388,6.889
					v7.93h-4.49v-7.03c0-1.678-0.031-3.835-2.335-3.835c-2.338,0-2.694,1.826-2.694,3.711v7.154h-4.489V20.17z"/>
			</g>
		</g>
		<g>
			<polygon fill="#999999" points="162.467,32.461 163.163,32.461 163.163,34.629 163.542,34.629 163.542,32.461 164.236,32.461 
				164.236,32.083 162.467,32.083 			"/>
			<polygon fill="#999999" points="166.696,32.083 165.953,33.951 165.21,32.083 164.672,32.083 164.672,34.629 165.047,34.629 
				165.047,32.69 165.828,34.629 166.079,34.629 166.858,32.69 166.858,34.629 167.235,34.629 167.235,32.083 			"/>
		</g>
	</g>
	<g>
		<path fill-rule="evenodd" clip-rule="evenodd" fill="#181616" d="M73.118,58.768c-13.856,0-25.092,11.234-25.092,25.095
			c0,11.086,7.189,20.491,17.161,23.81c1.255,0.23,1.713-0.545,1.713-1.21c0-0.596-0.021-2.173-0.034-4.268
			c-6.98,1.517-8.453-3.363-8.453-3.363c-1.141-2.899-2.786-3.671-2.786-3.671c-2.278-1.557,0.172-1.525,0.172-1.525
			c2.518,0.178,3.844,2.586,3.844,2.586c2.238,3.835,5.873,2.727,7.303,2.085c0.228-1.622,0.876-2.728,1.593-3.354
			c-5.572-0.634-11.43-2.786-11.43-12.402c0-2.739,0.978-4.979,2.583-6.733c-0.258-0.635-1.119-3.187,0.246-6.641
			c0,0,2.106-0.675,6.9,2.572c2.002-0.557,4.148-0.835,6.282-0.845c2.131,0.01,4.277,0.288,6.282,0.845
			c4.791-3.247,6.894-2.572,6.894-2.572c1.369,3.454,0.508,6.006,0.25,6.641c1.608,1.754,2.579,3.994,2.579,6.733
			c0,9.641-5.867,11.762-11.457,12.383c0.901,0.774,1.703,2.306,1.703,4.646c0,3.355-0.03,6.062-0.03,6.884
			c0,0.671,0.452,1.452,1.726,1.207c9.962-3.325,17.146-12.724,17.146-23.807C98.213,70.002,86.977,58.768,73.118,58.768z"/>
		<circle fill="#80B23F" cx="95.583" cy="101.896" r="11.536"/>
		<path fill="none" stroke="#FFFFFF" stroke-width="2" stroke-miterlimit="10" d="M90.62,100.972c0,0,3.066,5.342,3.991,4.984
			c0.925-0.358,6.708-9.657,6.708-9.657"/>
	</g>
	<g>
		<polygon fill="#BCBBBB" points="40.759,182.388 40.759,167.092 45.857,167.092 45.857,187.486 0,187.486 0,167.092 5.098,167.092 
			5.098,182.388 		"/>
		<path fill="#F48024" d="M10.709,165.685l24.947,5.243l1.048-4.99l-24.947-5.242L10.709,165.685z M14.009,153.739l23.109,10.763
			l2.152-4.622l-23.109-10.763L14.009,153.739z M20.404,142.402l19.589,16.314l3.263-3.918l-19.589-16.313L20.404,142.402z
			 M33.05,130.343l-4.091,3.043l15.214,20.454l4.091-3.042L33.05,130.343z M10.202,177.288h25.492v-5.099H10.202V177.288z"/>
		<circle fill="#80B23F" cx="47.808" cy="186.737" r="11.536"/>
		<path fill="none" stroke="#FFFFFF" stroke-width="2" stroke-miterlimit="10" d="M42.845,185.811c0,0,3.066,5.342,3.991,4.984
			c0.925-0.358,6.708-9.657,6.708-9.657"/>
	</g>
	<circle fill="#80B23F" cx="163.962" cy="37.846" r="11.536"/>
	<path fill="none" stroke="#FFFFFF" stroke-width="2" stroke-miterlimit="10" d="M158.999,36.92c0,0,3.066,5.342,3.991,4.984
		c0.925-0.358,6.707-9.657,6.707-9.657"/>
	<g>
		<g>
			<g>
				<path fill="none" d="M710.573,66.986c2.628-4.482,5.565-12.211,5.565-12.211c0.344,0.801,1.258,1.813,2.351,2.785
					c2.55,1.148,5.792,0.949,7.852,2.779c1.236,1.237,2.782,0.619,4.328,1.546c-5.168,1.033-8.391,6.6-12.018,9.303
					c-2.518,6.002-11.06,6.061-11.06,6.061l-2.474,0.507C704.642,71.271,710.573,66.986,710.573,66.986z"/>
				<path fill="none" d="M661.372,57.561c0.65-0.578,1.232-1.168,1.673-1.721l-1.315,2.63l11.563,18.388c0,0,0.314,0.36,0.715,0.747
					l-1.736-0.355c0,0-8.542-0.059-11.06-6.061c-3.627-2.703-6.852-8.27-12.019-9.303c1.546-0.927,3.092-0.31,4.328-1.546
					C655.581,58.51,658.822,58.709,661.372,57.561z"/>
				<path fill="#343838" d="M643.532,62.83c0.379,1.327,0.569,6.445,4.17,9.289c3.602,2.843,7.583,3.98,10.805,6.065
					c2.228,1.441,6.176,4.785,8.715,6.899c2.217,1.164,4.233,2.086,4.427,2.427c0.053,0.093,0.081,0.143,0.081,0.143l0.791-0.247
					l1.029-0.323l0.135-0.042c0,0-0.58,9.152-0.011,11.427c0.568,2.274,3.601,4.929,6.256,5.688c0,0-5.119-0.379-6.635-1.327
					c-1.517-0.948-4.929,6.066-6.066,13.459c-1.137,7.393,0.948,19.335,1.706,21.42c0.758,2.086-0.189,8.15-1.137,9.668
					c-0.948,1.518-7.393,14.218-7.014,18.198c0.379,3.982,1.517,10.995,7.014,12.701c0,0-3.223,0.569-6.635-3.98
					c0,0,3.981,17.061,2.843,21.42c-1.137,4.36-1.327,6.825-3.98,7.394c-2.655,0.568-3.034,0.568-2.086,2.274
					c0.038,0.066,0.06,0.118,0.075,0.163c0.601,0.315,1.252,0.518,1.865,0.418c1.88-0.307,2.661,0.023,5.558,0.792
					c2.897,0.769,6.587-0.983,6.48-2.686c-0.069-1.103-1.931-4.576-1.633-7.875c0.225-2.482-0.155-2.46-0.652-4.327
					c-0.778-2.932,3.109-17.1,6.773-22.268c3.665-5.168,2.374-16.885,2.374-16.885c-0.16-3.189,0.875-12.009,1.985-14.933
					c4.512-11.874,5.652-20.024,6.484-25.976c0.676-4.842,1.639-6.804,1.639-6.804l1.043-0.393l1.044,0.393
					c0,0,0.667,0.931,1.733,6.5c0.854,4.466,0.193,12.891,5.355,26.28c1.477,3.833,1.211,9.341,0.964,12.323
					c-0.206,0.891-0.377,1.903-0.506,3.059c0,0,1.482,10.53,4.824,15.914c3.341,5.381,6.353,19.761,5.396,22.639
					c-0.609,1.834-0.988,1.787-0.916,4.279c0.095,3.312-1.976,6.664-2.113,7.761c-0.211,1.692,3.365,3.667,6.304,3.077
					c2.938-0.59,3.739-0.872,5.596-0.449c1.858,0.422,4.255-1.954,4.255-1.954c-0.307-2.14-3.195-1.722-3.929-2.208
					c-0.705-0.471-2.846-3.22-2.989-8.205c-0.121-4.197,4.973-24.399,5.087-28.593c0.141-5.139-4.497-14.33-6.291-16.952
					c-0.588-1.596-1.137-3.131-1.137-3.271c0-0.772-0.463-4.638-0.309-7.884c0.154-3.246,4.047-8.489,1.264-22.401
					c-1.884-9.419-4.18-11.886-5.368-16.714c-1.138-6.494-1.964-11.22-1.884-11.12l1.03,0.323l0.79,0.247c0,0,0.027-0.05,0.08-0.143
					c0.38-0.667,7.762-3.568,9.935-6.148c2.473-2.938,7.598-3.174,11.902-6.646c7.087-5.72,5.524-9.181,6.606-10.882
					c1-1.571,0.153-2.481,0.019-2.609c0.001-0.032-0.199-0.483-1.988-3.821c-2.317-4.328-6.182-8.656-6.182-8.656
					s-0.464-3.092-3.092-7.266c-2.628-4.174-10.975-5.719-13.448-6.801c-2.473-1.083-12.798-3.341-12.798-3.341l-9.236,2.884
					l-8.826-2.896c0,0-6.549,1.386-10.595,2.508c-5.708,2.246-13.89,5.85-15.225,8.522c-2.085,4.17-2.653,7.203-2.653,7.203
					l0.947,4.739c0,0-1.137-5.308-4.549-0.379C645.617,58.85,643.153,61.503,643.532,62.83z M710.573,66.986
					c2.628-4.482,5.565-12.211,5.565-12.211c0.344,0.801,1.258,1.813,2.351,2.785c2.55,1.148,5.792,0.949,7.852,2.779
					c1.236,1.237,2.782,0.619,4.328,1.546c-5.168,1.033-8.391,6.6-12.018,9.303c-2.518,6.002-11.06,6.061-11.06,6.061l-2.474,0.507
					C704.642,71.271,710.573,66.986,710.573,66.986z M649.194,61.886c1.546-0.927,3.092-0.31,4.328-1.546
					c2.059-1.83,5.3-1.631,7.85-2.779c0.65-0.578,1.232-1.168,1.673-1.721l1.529-3.057c0,0,3.602,10.047,5.687,12.321
					c2.085,2.275,7.393,5.308,7.393,5.308s-1.896,5.877-1.896,7.583c0,1.1-1.021,0.31-1.75-0.391l-1.736-0.355
					c0,0-8.542-0.059-11.06-6.061C657.586,68.485,654.361,62.919,649.194,61.886z"/>
				<linearGradient id="SVGID_8_" gradientUnits="userSpaceOnUse" x1="663.0449" y1="65.6618" x2="677.6538" y2="65.6618">
					<stop  offset="0" style="stop-color:#1B75B9"/>
					<stop  offset="1" style="stop-color:#2B388D"/>
				</linearGradient>
				<path fill="url(#SVGID_8_)" d="M669.289,66.986c-2.627-4.482-5.565-12.211-5.565-12.211c-0.139,0.325-0.376,0.687-0.679,1.064
					l1.529-3.057c0,0,3.602,10.047,5.687,12.321c2.085,2.275,7.393,5.308,7.393,5.308s-1.896,5.877-1.896,7.583
					c0,1.1-1.021,0.31-1.75-0.391l0.738,0.151C675.219,71.271,669.289,66.986,669.289,66.986z"/>
			</g>
			<g>
				<g>
					<g>
						<linearGradient id="SVGID_9_" gradientUnits="userSpaceOnUse" x1="649.1938" y1="64.3745" x2="661.372" y2="64.3745">
							<stop  offset="0" style="stop-color:#1B75B9"/>
							<stop  offset="1" style="stop-color:#2B388D"/>
						</linearGradient>
						<path fill="url(#SVGID_9_)" d="M654.295,62.04c0,0,0.309-0.772,1.855-1.081c0.974-0.195,3.359-1.74,5.222-3.398
							c-2.55,1.148-5.792,0.949-7.85,2.779c-1.236,1.236-2.782,0.619-4.328,1.546c5.168,1.033,8.392,6.6,12.019,9.303
							c-0.136-0.322-0.27-0.657-0.402-1.015C658.372,63.608,655.687,63.896,654.295,62.04z"/>
						<path d="M666.628,96.63"/>
					</g>
					<path fill="#EF5A24" d="M725.567,62.041c0,0-0.31-0.773-1.855-1.082c-0.974-0.195-3.359-1.74-5.224-3.398
						c2.55,1.148,5.792,0.949,7.852,2.779c1.236,1.237,2.782,0.619,4.328,1.546c-5.168,1.033-8.391,6.6-12.018,9.303
						c0.135-0.321,0.269-0.656,0.403-1.014C721.489,63.609,724.176,63.896,725.567,62.041z"/>
					<path d="M713.233,96.63"/>
				</g>
			</g>
			<linearGradient id="SVGID_10_" gradientUnits="userSpaceOnUse" x1="694.9438" y1="56.3193" x2="707.3022" y2="56.3193">
				<stop  offset="0" style="stop-color:#1B75B9"/>
				<stop  offset="1" style="stop-color:#2B388D"/>
			</linearGradient>
			<path fill="url(#SVGID_10_)" d="M694.944,50.478c0,0,2.696,9.661,4.269,9.887c1.573,0.225,8.089,1.797,8.089,1.797
				s-5.168-1.348-6.966-3.146C698.539,57.219,694.944,50.478,694.944,50.478z"/>
			<linearGradient id="SVGID_11_" gradientUnits="userSpaceOnUse" x1="672.4746" y1="56.3193" x2="684.833" y2="56.3193">
				<stop  offset="0" style="stop-color:#1B75B9"/>
				<stop  offset="1" style="stop-color:#2B388D"/>
			</linearGradient>
			<path fill="url(#SVGID_11_)" d="M684.833,50.478c0,0-2.696,9.661-4.27,9.887c-1.572,0.225-8.089,1.797-8.089,1.797
				s5.168-1.348,6.965-3.146C681.238,57.219,684.833,50.478,684.833,50.478z"/>
			<linearGradient id="SVGID_12_" gradientUnits="userSpaceOnUse" x1="687.1963" y1="59.4649" x2="692.6665" y2="59.4649">
				<stop  offset="0" style="stop-color:#1B75B9"/>
				<stop  offset="1" style="stop-color:#2B388D"/>
			</linearGradient>
			<path fill="url(#SVGID_12_)" d="M689.932,46.795c-0.131-3.81,0-6.654,0-6.654s0.131,2.843,0,6.651v0.006
				c0.201,5.835-0.12,13.94,2.735,17.61c0,0-2.061,9.438-2.735,14.381c-0.674-4.942-2.735-14.381-2.735-14.381
				C690.052,60.738,689.73,52.631,689.932,46.795z"/>
			<g>
				<path fill="#343838" d="M683.048,29.753c0.53-1.264,0.164-9.412,0.164-9.412s-0.833-1.664-0.971-2.772
					c-0.139-1.109,0.831-1.525,0.831-1.525s-0.276-4.853-0.415-5.547c-0.139-0.693-0.138-3.466,0.555-4.298
					c0.693-0.831,2.912-1.387,2.912-1.387l-1.387-0.555c2.08-0.277,6.379,0.139,6.379,0.139c-7.903-1.803-7.765,0.139-7.904,0.694
					c-0.139,0.554-1.387,3.189-3.744,3.604c-0.822,0.145-1.811,0.018-2.753-0.205c-1.645-0.753-3.007-1.277-2.898-1.239
					c0.259,0.091,5.806-1.419,5.806-1.419l-4.673-3.466c0,0,1.982,0.509,4.48,0.078s14.043,1.034,14.99,1.637
					c0.948,0.603,3.274,4.824,3.274,4.824l-0.021,5.51l1.235,1.167c0,0,0.138,1.649-0.068,2.336
					c-0.206,0.687-0.825,2.404-0.825,2.404s0,1.03,0,2.61c0,1.579,0.914,5.271,0.914,5.271c0.103,0.155,3.897,4.684,4.411,4.829
					c-1.21,2.475-5.669,0.601-8.255,2.102c-2.799,1.627-6.06,1.817-9.129,0.875c-2.461-0.757-4.743-2.017-6.806-3.595
					C680.947,31.433,682.91,30.26,683.048,29.753z"/>
				<path fill="#EF5A24" d="M679.469,8.693c2.357-0.415,3.604-3.05,3.744-3.604c0.139-0.556,0-2.497,7.904-0.694
					c0,0-4.299-0.416-6.379-0.139l1.387,0.555c0,0-2.219,0.556-2.912,1.387c-0.693,0.832-0.694,3.604-0.555,4.298
					c0.139,0.693,0.415,5.547,0.415,5.547s-0.971,0.416-0.831,1.525c0.138,1.108,0.971,2.772,0.971,2.772s0.366,8.149-0.164,9.412
					c0.258-0.947-0.086-8.787-0.431-9.046c-0.344-0.259-1.121-1.896-1.121-2.154c0-0.258,0.086-2.498,0.086-2.498l0.949-0.604
					c0,0,0-1.637-0.518-3.445c-0.298-1.043-3.06-2.493-5.299-3.518C677.658,8.712,678.647,8.839,679.469,8.693z"/>
			</g>
			<g>
				<path fill="none" d="M649.194,61.886c1.546-0.927,3.092-0.31,4.328-1.546c2.059-1.83,5.3-1.631,7.85-2.779
					c1.094-0.973,2.009-1.984,2.352-2.785c0,0,2.938,7.729,5.565,12.211c0,0,5.931,4.284,5.458,10.77l-2.475-0.507
					c0,0-8.542-0.059-11.06-6.061C657.586,68.485,654.361,62.919,649.194,61.886z"/>
				<path fill="none" d="M710.573,66.986c2.628-4.482,5.565-12.211,5.565-12.211c0.344,0.801,1.258,1.813,2.351,2.785
					c2.55,1.148,5.792,0.949,7.852,2.779c1.236,1.237,2.782,0.619,4.328,1.546c-5.168,1.033-8.391,6.6-12.018,9.303
					c-2.518,6.002-11.06,6.061-11.06,6.061l-2.474,0.507C704.642,71.271,710.573,66.986,710.573,66.986z"/>
				<linearGradient id="SVGID_13_" gradientUnits="userSpaceOnUse" x1="642.7247" y1="59.4595" x2="670.5102" y2="59.4595">
					<stop  offset="0" style="stop-color:#1B75B9"/>
					<stop  offset="1" style="stop-color:#2B388D"/>
				</linearGradient>
				<path fill="url(#SVGID_13_)" d="M661.714,81.362c-2.473-2.938-7.599-3.174-11.902-6.647c-7.087-5.719-5.524-9.181-6.606-10.881
					c-1.001-1.571-0.152-2.481-0.019-2.609c-0.001-0.033,0.2-0.483,1.988-3.821c2.318-4.329,6.183-8.657,6.183-8.657
					s0.339-3.172,3.091-7.265c3.489-5.19,10.975-5.719,13.449-6.801c0.541-0.237,1.479-0.531,2.612-0.846
					c-5.708,2.246-13.89,5.85-15.225,8.522c-2.085,4.17-2.653,7.203-2.653,7.203l0.947,4.739c0,0-1.137-5.308-4.549-0.379
					c-3.413,4.929-5.876,7.582-5.497,8.909c0.379,1.327,0.569,6.445,4.17,9.289c3.602,2.843,7.583,3.98,10.805,6.065
					c2.228,1.441,6.176,4.785,8.715,6.899C665.093,83.967,662.779,82.626,661.714,81.362z"/>
			</g>
			<g>
				<path fill="none" d="M661.372,57.561c1.094-0.973,2.009-1.984,2.352-2.785c0,0,2.938,7.729,5.565,12.211
					c0,0,5.931,4.284,5.458,10.77l-2.475-0.507c0,0-8.542-0.059-11.06-6.061c-3.627-2.703-6.852-8.27-12.019-9.303
					c1.546-0.927,3.092-0.31,4.328-1.546C655.581,58.51,658.822,58.709,661.372,57.561z"/>
				<path fill="none" d="M710.573,66.986c2.628-4.482,5.565-12.211,5.565-12.211c0.344,0.801,1.258,1.813,2.351,2.785
					c2.55,1.148,5.792,0.949,7.852,2.779c1.236,1.237,2.782,0.619,4.328,1.546c-5.168,1.033-8.391,6.6-12.018,9.303
					c-2.518,6.002-11.06,6.061-11.06,6.061l-2.474,0.507C704.642,71.271,710.573,66.986,710.573,66.986z"/>
				<path fill="#EF5A24" d="M655.685,203.737c0.318-1.538,1.871-1.689,3.005-1.801c0.468-0.046,0.871-0.085,1.085-0.209
					c0.572-0.331,2.985-2.789,3.452-7.951c0.201-2.225-0.793-9.051-1.755-15.653c-0.841-5.776-1.637-11.232-1.57-13.193
					c0.142-4.197,4.189-12.75,6.879-17.482c0.46-2.488,1.034-6.239,0.713-10.123c-0.065-0.779-0.333-1.652-0.672-2.758
					c-1.081-3.52-2.714-8.84-0.604-19.389c1.403-7.018,2.432-9.73,3.426-12.353c1.004-2.648,1.953-5.15,3.255-11.737
					c0.129-0.656,0.345-1.321,0.554-1.964c0.241-0.741,0.468-1.441,0.577-2.135l0.138,0.018c-0.01,0.093-0.986,9.208-0.427,11.445
					c0.562,2.248,4.229,5.084,6.836,5.829l0.565,0.161l-0.587-0.025c-0.233-0.011-5.717-0.264-7.231-1.211
					c-0.084-0.053-0.178-0.079-0.277-0.079c-1.626,0-4.707,6.388-5.75,13.172c-1.148,7.464,0.951,19.319,1.703,21.386
					c0.779,2.144-0.215,8.242-1.144,9.729c-0.844,1.35-7.387,14.137-7.004,18.154c0.692,7.267,2.97,11.401,6.966,12.643l0.273,0.084
					l-0.282,0.05c-0.005,0.001-0.138,0.023-0.374,0.023c-0.971,0-3.477-0.374-6.134-3.777c0.531,2.339,3.815,17.142,2.772,21.143
					c-0.161,0.617-0.301,1.188-0.436,1.738c-0.796,3.248-1.277,5.208-3.597,5.705l-0.313,0.067
					c-1.288,0.273-1.997,0.425-2.153,0.767c-0.12,0.264,0.065,0.69,0.426,1.339c0.035,0.063,0.06,0.119,0.079,0.175l0.056,0.164
					l-0.154-0.08c-1.237-0.65-2.27-1.797-2.28-1.809l-0.023-0.025L655.685,203.737z"/>
			</g>
		</g>
		<g>
			<path fill="#EF5A24" d="M545.832,69.459c1.415,1.167,2.632,2.685,3.529,4.12c2.029,3.25,2.582,6.785,2.644,10.435
				c-20.021,2.918-41.128,5.037-41.128,5.037c3.519-0.809,15.306-14.878,19.55-18.384C531.662,69.646,537.921,69.299,545.832,69.459
				z"/>
			<path fill="#EF5A24" d="M614.581,151.868c0,0,19.378,13.103,32.296,10.703c0,0-20.616-38.271-18.455-30.45
				C632.298,146.148,623.439,150.392,614.581,151.868z"/>
			<path fill="#EF5A24" d="M575.73,121.77c0,0,7.293-15.854,34.237-22.498c26.944-6.644-43.185,0.369-43.739,4.43
				C565.675,107.761,568.989,118.246,575.73,121.77z"/>
			<linearGradient id="SVGID_14_" gradientUnits="userSpaceOnUse" x1="463.5517" y1="96.097" x2="715.3871" y2="96.097">
				<stop  offset="0" style="stop-color:#F9AE3B"/>
				<stop  offset="0.8579" style="stop-color:#FF911E"/>
			</linearGradient>
			<path fill="url(#SVGID_14_)" d="M715.368,34.715c0,0,1.601,26.049-24.539,42.65c-43.235,27.46-46.157,68.943-43.819,81.797
				c2.337,12.854-9.933-15.19-28.045-21.617c-16.006-5.68-16.943,8.764-16.943,8.764s-3.505-11.101-11.101-25.123
				c-7.595-14.022-23.371-22.787-23.955-15.191c-0.584,7.596,8.765,15.775,8.765,15.775s-18.113-8.18-25.124-19.281
				c-7.011-11.101,5.843-26.291-8.764-30.965c-14.607-4.675-14.023,14.605-30.966,17.527c-16.943,2.921-37.392-8.764-47.325-22.786
				c0,0,42.067,1.752,57.842-4.674C537.169,55.164,559.37,40.557,588,39.973c28.628-0.584,51.999,2.337,68.358-2.921
				C672.717,31.793,686.155,24.782,715.368,34.715z"/>
			<path fill="#EF5A24" d="M711.687,36.137c0,0-1.418,19.846-34.587,39.123c-25.516,14.83-67.756,55.85-72.576,63.504
				c0,0,19.477-34.241,56.983-56.699C708.852,53.714,708.001,41.523,711.687,36.137z"/>
			<path fill="#EF5A24" d="M704.032,35.003c0,0-11.907,36.855-71.726,48.479c-55.135,10.713-65.205,19.845-65.205,19.845
				s15.851-14.982,54.715-20.979C671.43,74.693,691.842,55.981,704.032,35.003z"/>
			<path fill="#EF5A24" d="M536.2,69.59c0,0,46.21,1.984,62.653,0.567c16.443-1.417,51.313,2.269,87.318-33.736
				c0,0-33.453,31.185-81.081,31.185C604.715,67.605,536.2,69.59,536.2,69.59z"/>
			<g>
				<path fill="#EF5A24" d="M568.235,56.266c-48.974,4.884-48.5,14.561-101.717,10.049c9.301,0.256,41.865,0.724,55.318-4.757
					c15.775-6.427,37.977-21.033,66.606-21.617c28.628-0.584,51.999,2.337,68.358-2.922c3.931-1.263,7.694-2.626,11.548-3.833
					C663.369,38.583,654.868,47.627,568.235,56.266z"/>
			</g>
		</g>
	</g>
</g>
<g>
	<g>
		
			<linearGradient id="SVGID_15_" gradientUnits="userSpaceOnUse" x1="708.3047" y1="162.964" x2="708.3047" y2="145.7745" gradientTransform="matrix(1 0 0 1 -321.5286 -142.5675)">
			<stop  offset="0" style="stop-color:#C6182A"/>
			<stop  offset="1" style="stop-color:#EC9046"/>
		</linearGradient>
		<polygon fill="url(#SVGID_15_)" points="386.777,3.207 381.775,11.803 386.777,20.396 391.777,11.803 		"/>
		<g>
			<g>
				<linearGradient id="SVGID_16_" gradientUnits="userSpaceOnUse" x1="398.623" y1="86.4356" x2="398.623" y2="17.4619">
					<stop  offset="0" style="stop-color:#C6182A"/>
					<stop  offset="1" style="stop-color:#EC9046"/>
				</linearGradient>
				<path fill="url(#SVGID_16_)" d="M412.862,30.892l-6.282-10.798l-3.213,5.521l6.283,10.798L412.862,30.892z M409.65,36.413
					l-3.07,5.279l-6.283-10.8l3.071-5.277l-4.743-8.153l-29.535,50.759l12.913,18.215h33.247l12.909-18.215L409.65,36.413z
					 M391.739,78.37l-8.773-15.077l8.773-15.07l8.773,15.07L391.739,78.37z"/>
			</g>
		</g>
		
			<linearGradient id="SVGID_17_" gradientUnits="userSpaceOnUse" x1="690.5313" y1="191.1466" x2="690.5313" y2="177.1935" gradientTransform="matrix(1 0 0 1 -321.5286 -142.5675)">
			<stop  offset="0" style="stop-color:#C6182A"/>
			<stop  offset="1" style="stop-color:#EC9046"/>
		</linearGradient>
		<polygon fill="url(#SVGID_17_)" points="369.002,34.626 364.942,41.602 369.002,48.579 373.063,41.602 		"/>
		
			<linearGradient id="SVGID_18_" gradientUnits="userSpaceOnUse" x1="728.1118" y1="148.6603" x2="728.1118" y2="142.5675" gradientTransform="matrix(1 0 0 1 -321.5286 -142.5675)">
			<stop  offset="0" style="stop-color:#C6182A"/>
			<stop  offset="1" style="stop-color:#EC9046"/>
		</linearGradient>
		<polygon fill="url(#SVGID_18_)" points="406.584,0 404.81,3.047 406.584,6.093 408.356,3.047 		"/>
		
			<linearGradient id="SVGID_19_" gradientUnits="userSpaceOnUse" x1="749.6895" y1="196.2833" x2="749.6895" y2="185.3038" gradientTransform="matrix(1 0 0 1 -321.5286 -142.5675)">
			<stop  offset="0" style="stop-color:#C6182A"/>
			<stop  offset="1" style="stop-color:#EC9046"/>
		</linearGradient>
		<polygon fill="url(#SVGID_19_)" points="428.157,42.736 424.967,48.225 428.157,53.716 431.355,48.225 		"/>
	</g>
	<g>
		<polygon fill="#603F17" points="386.012,91.74 391.79,91.748 393.569,97.245 388.891,100.637 384.219,97.235 		"/>
		<polygon fill="#603F17" points="405.163,91.74 410.941,91.748 412.72,97.245 408.042,100.637 403.37,97.235 		"/>
		<polygon fill="#603F17" points="421.448,88.075 424.733,83.322 430.27,84.978 430.406,90.754 424.955,92.669 		"/>
		<polygon fill="#603F17" points="375.753,87.791 372.468,83.038 366.931,84.694 366.794,90.471 372.246,92.386 		"/>
	</g>
</g>
</svg>
